<mxfile host="app.diagrams.net" modified="2023-09-21T08:22:21.883Z" agent="Mozilla/5.0 (Windows NT 10.0; Win64; x64) AppleWebKit/537.36 (KHTML, like Gecko) Chrome/116.0.0.0 Safari/537.36" version="21.3.3" etag="oEZ31gmIgDsRfwuXeMgr" type="github">
  <diagram name="第 1 页" id="PK5bEDKdzRTu65StPJIo">
    <mxGraphModel>
      <root>
        <mxCell id="0" />
        <mxCell id="1" parent="0" />
      </root>
    </mxGraphModel>
  </diagram>
</mxfile>
